<?xml version="1.0"?>

<svg xmlns="http://www.w3.org/2000/svg" version="1.1" viewBox="0.00 0.00 1773.00 1773.00">
<path fill="#cc1122" d="&#xA;  M 1149.33 618.17&#xA;  Q 1162.93 631.78 1178.06 646.94&#xA;  Q 1287.16 756.25 1332.55 801.56&#xA;  Q 1338.25 807.24 1346.34 815.50&#xA;  Q 1355.49 824.82 1359.12 829.80&#xA;  C 1381.77 860.78 1381.51 903.91 1356.86 934.14&#xA;  Q 1351.77 940.39 1340.56 951.56&#xA;  Q 1278.86 1013.02 1234.63 1057.51&#xA;  C 1137.70 1155.04 1027.94 1264.80 953.56 1339.56&#xA;  C 946.78 1346.38 940.15 1352.88 932.72 1357.53&#xA;  C 900.65 1377.59 861.50 1374.58 832.64 1350.64&#xA;  Q 828.27 1347.02 817.23 1335.81&#xA;  C 759.98 1277.65 719.62 1237.70 625.05 1142.98&#xA;  Q 611.46 1129.36 596.32 1114.20&#xA;  Q 487.22 1004.89 441.83 959.58&#xA;  Q 436.13 953.90 428.04 945.64&#xA;  Q 418.89 936.32 415.26 931.34&#xA;  C 392.61 900.36 392.87 857.23 417.52 827.00&#xA;  Q 422.61 820.75 433.82 809.58&#xA;  Q 495.52 748.12 539.75 703.63&#xA;  C 636.68 606.10 746.44 496.34 820.82 421.58&#xA;  C 827.60 414.76 834.23 408.26 841.66 403.61&#xA;  C 873.73 383.55 912.88 386.56 941.74 410.50&#xA;  Q 946.11 414.12 957.15 425.34&#xA;  C 1014.40 483.49 1054.76 523.45 1149.33 618.17&#xA;  Z&#xA;  M 888.54 759.43&#xA;  A 1.05 1.03 -37.9 0 1 887.27 759.28&#xA;  C 881.68 753.65 875.37 745.04 869.72 739.75&#xA;  Q 855.20 726.13 840.19 719.36&#xA;  C 823.56 711.86 803.04 707.39 783.74 709.70&#xA;  C 747.45 714.04 716.04 733.98 697.45 765.20&#xA;  Q 687.64 781.68 684.20 798.70&#xA;  Q 680.34 817.75 681.46 833.80&#xA;  C 683.29 860.26 695.20 886.07 713.13 905.62&#xA;  Q 723.77 917.22 729.75 923.25&#xA;  Q 804.40 998.32 831.10 1025.29&#xA;  C 843.35 1037.67 856.09 1051.20 867.37 1062.20&#xA;  Q 878.21 1072.77 893.98 1070.49&#xA;  C 903.70 1069.09 909.43 1062.93 916.03 1056.30&#xA;  Q 983.78 988.35 1052.24 918.74&#xA;  Q 1061.34 909.50 1069.43 899.19&#xA;  Q 1099.01 861.52 1095.64 814.98&#xA;  Q 1094.36 797.32 1088.29 782.17&#xA;  C 1081.41 764.99 1071.25 748.80 1057.09 736.69&#xA;  C 1035.46 718.20 1010.95 707.76 982.01 708.74&#xA;  Q 934.92 710.32 903.14 743.41&#xA;  C 899.52 747.18 894.58 753.72 891.54 756.78&#xA;  Q 889.47 758.87 888.54 759.43&#xA;  Z"></path>
</svg>