<svg xmlns="http://www.w3.org/2000/svg" viewBox="326 318 1141 1141" width="1141" height="1141" role="img" aria-label="Course It — white">
  
  <path fill="#FFFFFF" fill-rule="evenodd" d="M 1276.44 1036.70 Q 1248.36 1064.96 1195.90 1117.89 Q 1191.33 1122.50 1191.17 1122.67 Q 1057.12 1256.87 966.30 1348.55 Q 960.12 1354.79 954.23 1360.27 C 931.11 1381.75 899.89 1389.06 869.98 1379.68 Q 850.58 1373.59 835.12 1358.37 Q 820.09 1343.56 808.65 1331.77 Q 797.33 1320.08 743.33 1266.10 Q 487.03 1009.88 433.34 955.95 Q 428.95 951.53 424.90 947.20 Q 404.38 925.29 402.61 894.72 Q 400.67 861.40 419.92 836.67 Q 425.63 829.33 438.12 816.87 Q 451.61 803.41 478.15 776.90 Q 495.42 759.66 543.32 711.57 Q 632.68 621.83 835.31 418.81 C 858.38 395.69 893.51 388.07 923.73 398.66 Q 935.11 402.65 945.63 410.22 Q 951.11 414.17 963.90 426.93 Q 985.49 448.45 1006.92 470.08 Q 1041.10 504.56 1149.18 613.07 Q 1264.33 728.67 1351.45 815.70 C 1356.12 820.37 1361.01 825.78 1365.67 830.39 Q 1369.06 833.75 1370.89 836.27 Q 1385.49 856.40 1387.90 878.78 Q 1392.45 921.31 1362.49 950.73 C 1356.40 956.70 1347.41 966.10 1339.58 973.85 Q 1299.64 1013.35 1276.44 1036.70 Z M 895.26 766.09 Q 892.33 763.27 883.36 752.53 Q 875.23 742.81 864.08 735.26 Q 847.64 724.12 828.91 719.38 Q 818.22 716.67 808.96 715.87 C 795.11 714.67 781.80 717.32 768.21 721.26 C 751.91 725.98 737.31 734.96 724.60 746.50 C 703.68 765.50 691.02 792.60 688.26 820.46 C 686.96 833.58 687.08 847.51 690.70 860.30 Q 694.48 873.67 697.53 880.48 Q 704.20 895.37 716.52 910.58 Q 719.34 914.07 722.60 917.30 C 727.83 922.50 732.78 928.09 738.27 933.65 Q 769.04 964.82 817.23 1013.02 C 835.45 1031.25 859.01 1055.87 875.37 1072.05 Q 881.76 1078.38 888.85 1080.01 Q 906.52 1084.08 919.73 1071.24 C 932.23 1059.09 943.83 1046.79 960.03 1030.52 Q 1009.58 980.75 1067.07 921.95 C 1074.94 913.89 1081.18 905.82 1086.71 897.46 C 1094.29 886.03 1100.01 873.27 1103.05 859.61 Q 1109.17 832.10 1103.18 804.57 C 1099.14 785.97 1088.33 766.02 1075.52 751.78 Q 1066.11 741.31 1052.04 732.21 Q 1022.60 713.18 986.19 715.35 Q 979.19 715.77 970.37 717.61 Q 938.04 724.37 914.56 747.13 C 909.03 752.49 904.17 758.94 899.42 764.65 Q 898.14 766.18 896.61 766.49 A 1.53 1.53 0.0 0 1 895.26 766.09 Z"></path>
</svg>