<?xml version="1.0"?>

<svg xmlns="http://www.w3.org/2000/svg" version="1.1" viewBox="0.00 0.00 1773.00 1773.00">
<path fill="#0a0a0a" d="&#xA;  M 887.09 390.32&#xA;  C 910.29 390.32 931.71 399.83 947.92 416.11&#xA;  Q 987.71 456.07 1151.13 619.85&#xA;  C 1209.91 678.76 1273.45 742.66 1344.67 813.59&#xA;  C 1349.17 818.08 1356.26 825.73 1360.37 831.59&#xA;  Q 1375.24 852.80 1375.63 879.52&#xA;  Q 1376.16 915.20 1351.27 940.54&#xA;  Q 1337.47 954.59 1333.53 958.53&#xA;  C 1268.76 1023.19 1215.79 1076.67 1150.64 1141.74&#xA;  Q 1048.68 1243.58 951.67 1341.42&#xA;  C 948.29 1344.83 943.19 1349.79 939.19 1352.87&#xA;  C 924.03 1364.56 906.36 1370.73 887.30 1370.73&#xA;  C 868.23 1370.74 850.56 1364.58 835.40 1352.89&#xA;  C 831.40 1349.81 826.30 1344.86 822.91 1341.45&#xA;  Q 725.86 1243.65 623.86 1141.85&#xA;  C 558.68 1076.81 505.69 1023.35 440.90 958.72&#xA;  Q 436.95 954.78 423.15 940.73&#xA;  Q 398.25 915.40 398.76 879.72&#xA;  Q 399.14 853.00 414.00 831.79&#xA;  C 418.11 825.92 425.20 818.27 429.70 813.78&#xA;  C 500.89 742.82 564.40 678.89 623.15 619.96&#xA;  Q 786.51 456.11 826.28 416.14&#xA;  C 842.48 399.85 863.90 390.33 887.09 390.32&#xA;  Z&#xA;  M 888.59 759.40&#xA;  A 1.08 1.08 0.0 0 1 887.27 759.25&#xA;  C 881.79 753.81 876.07 746.13 870.56 740.60&#xA;  C 861.66 731.65 849.29 722.86 836.84 717.93&#xA;  C 822.79 712.36 807.16 708.55 792.03 709.13&#xA;  C 742.84 711.02 699.46 744.13 685.88 791.85&#xA;  Q 681.22 808.23 681.27 827.76&#xA;  C 681.35 857.38 694.90 886.44 715.03 907.71&#xA;  Q 735.35 929.19 772.16 966.03&#xA;  Q 810.67 1004.58 841.14 1035.47&#xA;  C 848.04 1042.47 859.01 1054.18 867.82 1062.61&#xA;  Q 878.81 1073.12 895.26 1070.27&#xA;  C 902.06 1069.09 907.65 1064.79 912.59 1059.84&#xA;  Q 968.86 1003.42 1042.70 928.24&#xA;  Q 1060.50 910.12 1064.46 905.48&#xA;  Q 1075.14 892.99 1082.31 879.57&#xA;  Q 1098.43 849.40 1095.49 813.76&#xA;  C 1093.66 791.57 1085.50 771.65 1073.19 754.29&#xA;  Q 1065.51 743.46 1053.44 733.63&#xA;  Q 1014.55 701.92 964.90 710.46&#xA;  Q 930.70 716.34 906.54 740.05&#xA;  Q 900.47 746.01 892.72 755.47&#xA;  Q 890.43 758.26 888.59 759.40&#xA;  Z"></path>
</svg>